<?xml version="1.0" encoding="utf-8"?>
<!-- Generator: Adobe Illustrator 16.0.0, SVG Export Plug-In . SVG Version: 6.00 Build 0)  -->
<!DOCTYPE svg PUBLIC "-//W3C//DTD SVG 1.1//EN" "http://www.w3.org/Graphics/SVG/1.1/DTD/svg11.dtd">
<svg version="1.1" id="Layer_1" xmlns="http://www.w3.org/2000/svg" xmlns:xlink="http://www.w3.org/1999/xlink" x="0px" y="0px"
	 width="1024px" height="1024px" viewBox="0 0 1024 1024" enable-background="new 0 0 1024 1024" xml:space="preserve">
<g id="icomoon-ignore">
</g>
<path fill="#00ABE6" d="M638.494,509.879c-0.769,0.341-1.463,0.616-2.125,0.955c-9.708,4.98-20.147,7.631-30.771,9.698
	c-10.303,2.003-20.69,3.148-31.192,2.499c-6.937-0.43-13.764-1.538-20.074-4.734c-4.539-2.298-8.117-5.463-9.606-10.541
	c-0.061-0.207-0.271-0.37-0.382-0.516c-3.778,2.279-7.434,4.654-11.239,6.749c-10.782,5.937-22.336,9.015-34.677,8.693
	c-2.776-0.07-5.626-0.479-8.287-1.26c-7.142-2.093-10.134-6.538-9.776-14.202c-1.25,0.624-2.381,1.205-3.523,1.76
	c-13.08,6.326-26.764,10.822-41.141,12.953c-5.182,0.769-10.473,1.024-15.714,1.034c-2.666,0.006-5.438-0.773-7.983-1.691
	c-4.022-1.447-6.798-4.178-6.888-8.803c-4.144,1.305-8.088,2.888-12.185,3.766c-8.736,1.873-17.494,3.767-26.342,4.921
	c-8.517,1.111-17.149,1.707-25.738,1.777c-8.334,0.071-16.568-1.306-23.98-5.595c-4.218-2.439-7.538-5.709-8.641-10.685
	c-0.85-3.818-0.224-7.465,1.492-10.951c3.568-7.239,9.27-12.583,15.635-17.245c14.276-10.457,30.297-16.746,47.709-19.661
	c6.824-1.142,13.684-1.406,20.561-1.008c3.584,0.207,7.081,1.038,10.269,2.838c4.927,2.781,6.298,7.809,3.402,12.683
	c-2.526,4.257-6.418,7.05-10.559,9.502c-7.991,4.729-16.689,7.623-25.702,9.626c-9.246,2.056-18.609,3.086-28.091,2.979
	c-2.316-0.025-2.613,0.289-2.743,2.674c-0.284,5.248,1.302,7.503,6.309,9.187c4.614,1.548,9.374,1.977,14.161,1.64
	c6.969-0.492,13.96-0.953,20.86-1.984c11.914-1.782,23.563-4.678,33.908-11.216c5.096-3.22,9.758-7.144,14.933-10.222
	c16.51-9.823,34.204-16.959,52.722-21.957c7.522-2.03,15.191-3.689,22.895-4.846c9.598-1.441,19.31-1.946,28.745,1.217
	c2.042,0.685,4.061,1.835,5.707,3.224c3.344,2.832,3.385,7.216,0.442,10.49c-3.328,3.706-7.66,4.434-12.288,4.009
	c-1.751-0.161-3.53-0.628-5.171-1.277c-2.147-0.854-2.639-2.022-2.3-4.26c0.31-2.056-0.197-2.97-2.137-3.733
	c-3.86-1.522-7.914-1.247-11.882-0.895c-8.818,0.788-17.493,2.53-25.874,5.347c-12.229,4.105-23.972,9.265-33.848,17.86
	c-2.552,2.224-4.681,4.795-5.564,8.185c-0.715,2.745,0.408,4.861,3.112,5.752c3.243,1.062,6.521,0.632,9.755,0.041
	c14.887-2.726,27.851-9.693,40.058-18.303c1.319-0.931,2.716-1.771,3.938-2.815c3.873-3.306,8.312-3.603,13.014-2.611
	c1.51,0.319,3.042,0.632,4.485,1.16c1.561,0.571,1.957,1.609,0.943,2.918c-1.382,1.782-3.062,3.334-4.618,4.98
	c-2.217,2.339-4.609,4.537-6.604,7.05c-1.666,2.097-3.165,4.586-1.451,7.383c1.847,3.017,4.94,3.783,8.139,3.401
	c8.613-1.03,16.343-4.554,23.873-8.7c7.32-4.031,13.437-9.539,19.568-15.076c10.604-9.572,23.036-15.915,36.431-20.545
	c8.034-2.777,16.274-4.756,24.722-5.614c7.073-0.717,14.196-1.149,21.126,1.258c6.545,2.274,8.127,7.461,3.751,12.859
	c-4.139,5.108-9.754,7.578-16.151,8.231c-2.339,0.237-4.813,0.136-7.107-0.36c-4.609-0.996-5.559-4.31-2.522-7.935
	c1.021-1.219,1.999-2.475,2.997-3.714c-0.101-0.211-0.199-0.423-0.3-0.636c-1.68,0.317-3.43,0.441-5.036,0.979
	c-12.263,4.12-23.518,10.01-32.831,19.172c-2.751,2.704-5.037,5.768-5.864,9.677c-0.693,3.279-0.053,5.471,2.934,6.91
	c2.855,1.375,5.981,2.521,9.101,2.943c10.907,1.481,21.541-0.642,32.057-3.263c8.009-1.995,15.703-4.896,23.046-8.724
	c1.634-0.852,2.629-1.959,3.403-3.631c8.71-18.796,18.554-36.967,30.968-53.604c13.842-18.554,29.987-34.786,49.473-47.48
	c6.731-4.387,13.841-8.115,21.761-9.783c2.9-0.612,6.059-0.532,9.021-0.154c2.794,0.356,4.254,2.633,4.506,5.498
	c0.417,4.724-1.356,8.905-3.188,13.064c-4.202,9.545-10.331,17.871-16.502,26.187c-9.131,12.304-19.659,23.314-30.846,33.733
	c-0.635,0.591-1.269,1.182-2.13,1.984c2.911,0.234,5.47,0.248,7.958,0.678c6.812,1.178,11.079,5.076,12.156,11.209
	c0.731,4.152-0.354,8.17-1.471,12.164c-1.731,6.196-3.328,12.43-4.982,18.648c-0.029,0.116-0.098,0.219-0.124,0.337
	c-0.973,4.52,1.105,6.648,5.662,5.929c3.627-0.572,6.604-2.364,9.295-4.722c0.35-0.305,0.648-0.896,0.638-1.347
	c-0.211-8.401,4.234-14.521,9.945-19.889c7.322-6.887,16.071-11.562,25.202-15.56c10.103-4.423,20.616-7.521,31.496-9.251
	c8.222-1.306,16.521-1.965,24.83-0.78c3.434,0.49,6.784,1.445,9.626,3.617c3.391,2.586,4.409,6.756,2.46,10.556
	c-2.397,4.673-6.522,7.563-10.89,10.113c-8.281,4.838-17.313,7.674-26.629,9.667c-9.493,2.032-19.104,3.057-28.821,2.871
	c-1.573-0.03-2.202,0.441-2.446,2.009c-0.477,3.072,0.54,6.254,3.434,7.642c2.687,1.288,5.714,2.462,8.625,2.562
	c5.351,0.186,10.776-0.093,16.084-0.816c22.711-3.103,41.633-14.291,59.307-28.133c6.867-5.378,13.84-10.647,21.043-15.564
	c7.674-5.238,16.419-7.804,25.616-8.934c5.066-0.624,10.116-1.09,15.159,0.055c1.777,0.404,3.938,0.652,4.286,2.889
	c0.331,2.109-1.44,3.268-3.021,4.021c-2.57,1.223-5.274,2.193-7.985,3.084c-1.333,0.438-2.259,1.029-2.932,2.315
	c-2.221,4.236-2.375,8.7-1.683,13.271c1.474,9.706,0.282,18.812-5.886,26.835c-0.091,0.122-0.087,0.316-0.194,0.74
	c2.891,0,5.705,0.26,8.449-0.063c3.832-0.449,7.623-1.28,11.404-2.07c0.893-0.187,1.751-0.768,2.509-1.324
	c1.91-1.398,2.119-2.309,1.211-4.454c-1.021-2.412-0.76-3.83,1.331-5.308c6.546-4.613,13.777-1.819,15.403,4.829
	c0.707,2.896-0.229,5.434-2.125,7.629c-2.974,3.442-6.989,5.135-11.191,6.438c-8.229,2.55-16.713,2.763-25.218,2.515
	c-3.643-0.107-7.273-0.528-10.913-0.703c-0.901-0.043-1.903,0.134-2.721,0.513c-11.28,5.179-23.121,7.621-35.505,6.939
	c-3.405-0.188-6.778-1.245-10.118-2.078c-0.983-0.246-1.916-0.982-2.7-1.689c-1.556-1.4-1.725-3.249-0.521-4.998
	c1.973-2.875,5.061-4.159,8.127-5.317c7.614-2.873,15.607-3.913,23.672-4.374c3.964-0.226,6.82-2.007,8.029-5.843
	c0.636-2.022,1.13-4.214,1.057-6.307c-0.24-6.945,0.355-13.723,2.895-20.248c0.033-0.083-0.059-0.213-0.163-0.547
	c-1.052,0.593-2.141,1.052-3.058,1.742c-7.156,5.404-14.446,10.645-21.374,16.329c-13.418,11.009-27.938,20.043-44.313,25.967
	c-10.029,3.625-20.3,6.307-30.95,7.056c-6.422,0.455-12.912,0.683-19.33,0.293c-7.715-0.469-15.214-2.263-22.034-6.228
	c-0.595-0.347-1.595-0.361-2.276-0.134c-6.044,2.028-12.02,4.259-18.091,6.193c-3.877,1.233-7.928,1.638-12.028,1.392
	c-5.476-0.324-8.424-3.293-8.567-8.78c-0.148-5.612,1.144-11.024,2.363-16.441c1.01-4.478,2.294-8.907,3.03-13.428
	c1.154-7.093-4.464-11.432-11.221-8.851c-4.527,1.728-8.389,4.556-12.105,7.576c-7.36,5.981-14.212,12.519-19.889,20.131
	c-5.921,7.942-8.934,17.201-11.156,26.738c-0.331,1.426-0.533,2.883-0.82,4.476c2.643,0.148,5.02,0.294,7.396,0.414
	c7.885,0.408,15.777,0.742,23.656,1.237c7.219,0.457,14.425,1.057,21.632,1.648c7.385,0.606,14.773,1.207,22.145,1.939
	c7.01,0.699,14.011,1.526,21.006,2.373c7.819,0.949,15.644,1.879,23.438,3.016c8.324,1.215,16.654,2.451,24.907,4.057
	c13.046,2.538,26.1,5.087,39.02,8.172c20.732,4.949,41.13,11.02,60.226,20.762c7.432,3.789,14.524,8.105,20.098,14.484
	c2.341,2.682,4.229,5.642,4.727,9.285c0.681,4.983-1.239,9.009-4.655,12.449c-4.962,4.995-11.134,7.988-17.595,10.44
	c-10.031,3.805-20.462,5.971-31.045,7.54c-13.151,1.953-26.383,2.869-39.66,3.027c-9.574,0.111-19.163,0.163-28.724-0.261
	c-11.521-0.506-23.044-1.288-34.517-2.424c-11.337-1.122-22.701-2.367-33.902-4.385c-23.719-4.275-46.419-11.544-66.712-25.041
	c-11.365-7.56-20.996-16.81-27.536-28.973c-4.972-9.246-7.328-19.123-7.103-29.619c0.021-0.957,0.026-1.916,0.021-2.873
	c-0.002-0.169-0.087-0.337-0.19-0.711c-3.822-0.13-7.687-0.308-11.553-0.384c-13.286-0.267-26.571-0.565-39.857-0.722
	c-12.331-0.146-24.665-0.171-36.996-0.169c-6.886,0.002-13.772,0.081-20.655,0.289c-11.837,0.362-23.672,0.837-35.507,1.29
	c-5.859,0.221-11.721,0.421-17.572,0.762c-8.715,0.504-17.425,1.098-26.133,1.707c-6.44,0.453-12.877,0.943-19.31,1.499
	c-6.012,0.521-12.014,1.132-18.018,1.737c-5.765,0.583-11.528,1.162-17.28,1.833c-6.701,0.782-13.397,1.615-20.084,2.511
	c-7.629,1.024-15.266,2.024-22.861,3.247c-10.479,1.682-20.966,3.354-31.374,5.411c-14.155,2.794-28.27,5.799-42.34,8.993
	c-8.942,2.027-17.877,4.236-26.624,6.967c-7.851,2.448-15.488,5.646-22.221,10.562c-1.187,0.866-2.263,1.97-3.139,3.151
	c-1.481,2.001-1.209,3.956,0.731,5.5c1.156,0.916,2.521,1.571,3.789,2.354c1.473,0.901,3.076,1.649,4.378,2.753
	c2.698,2.283,2.8,5.19,0.427,7.841c-2.33,2.603-5.368,4.171-8.521,5.49c-17.522,7.325-34.326,5.026-50.517-4.018
	c-3.478-1.941-6.307-4.731-7.704-8.665c-1.668-4.692,0.106-8.58,3.027-12.06c4.317-5.138,9.986-8.491,15.87-11.506
	c11.425-5.855,23.562-9.795,35.956-12.918c11.154-2.809,22.363-5.434,33.623-7.782c10.035-2.097,20.157-3.805,30.269-5.504
	c9.943-1.67,19.909-3.212,29.89-4.618c8.864-1.25,17.759-2.294,26.656-3.324c9.729-1.13,19.467-2.186,29.21-3.18
	c8.144-0.829,16.295-1.581,24.45-2.259c11.852-0.989,23.702-2.019,35.572-2.775c11.101-0.707,22.221-1.113,33.337-1.587
	c7.17-0.305,14.346-0.561,21.52-0.715c13.704-0.295,27.408-0.542,41.112-0.728c10.297-0.138,20.599-0.279,30.896-0.194
	c15.382,0.126,30.765,0.412,46.146,0.705c8.076,0.153,16.146,0.457,24.22,0.709c2.271,0.068,4.541,0.173,6.809,0.329
	c0.986,0.066,1.428-0.329,1.542-1.263c0.914-7.546,2.772-14.878,5.033-22.122c0.053-0.167-0.015-0.355-0.039-0.713L638.494,509.879z
	 M654.765,542.409c0.354,4.818,0.534,9.233,1.026,13.615c1.29,11.471,5.488,21.809,12.57,30.937
	c8.643,11.15,20.021,18.718,32.634,24.588c15.848,7.373,32.606,11.8,49.755,14.734c9.635,1.647,19.346,2.952,29.07,3.96
	c9.564,0.991,19.176,1.682,28.783,2.026c15.796,0.561,31.567,0.02,47.279-1.942c10.323-1.29,20.521-3.103,30.351-6.579
	c5.541-1.963,10.884-4.358,15.105-8.659c4.003-4.082,4.836-8.909,2.104-13.926c-1.154-2.127-2.67-4.126-4.343-5.882
	c-4.549-4.781-10.146-8.144-15.963-11.128c-18.269-9.381-37.809-15.195-57.639-20.045c-12.379-3.029-24.887-5.571-37.394-8.025
	c-9.184-1.802-18.444-3.214-27.703-4.612c-6.784-1.02-13.604-1.819-20.425-2.567c-8.431-0.92-16.879-1.716-25.324-2.493
	c-4.939-0.453-9.887-0.776-14.834-1.143c-6.258-0.461-12.517-0.924-18.777-1.349c-5.187-0.349-10.378-0.656-15.568-0.961
	C662.081,542.767,658.696,542.611,654.765,542.409L654.765,542.409z M673.349,477.21c0.455-0.266,0.92-0.514,1.359-0.805
	c8.743-5.784,17.144-12.057,24.627-19.386c10.165-9.96,19.903-20.359,28.239-31.94c3.968-5.51,7.603-11.272,11.183-17.046
	c0.934-1.503,1.315-3.458,1.557-5.256c0.243-1.82-0.945-2.586-2.726-2.061c-0.626,0.186-1.288,0.366-1.82,0.717
	c-3.532,2.332-7.294,4.405-10.502,7.127c-13.327,11.312-24.976,24.171-35.139,38.423C683.4,456.418,678.19,466.65,673.349,477.21
	L673.349,477.21z M775.217,488.814c0.118,0.167,0.236,0.333,0.356,0.5c0.469,0,0.957,0.07,1.412-0.011
	c9.898-1.786,19.492-4.537,28.383-9.355c3.896-2.111,7.67-4.46,10.376-8.08c0.564-0.754,1.008-2.178,0.66-2.871
	c-0.35-0.701-1.774-1.272-2.681-1.207c-2.479,0.179-5.008,0.461-7.379,1.166c-8.578,2.546-16.226,6.922-23.153,12.52
	C780.385,483.739,777.864,486.356,775.217,488.814L775.217,488.814z M342.806,489.32c0.806,0,1.224,0.062,1.611-0.008
	c9.429-1.733,18.552-4.415,27.034-8.979c4.224-2.271,8.334-4.762,11.223-8.728c0.555-0.765,1.06-2.229,0.693-2.832
	c-0.453-0.755-1.829-1.309-2.811-1.313c-1.766-0.006-3.573,0.307-5.291,0.756c-7.133,1.863-13.521,5.317-19.569,9.442
	C350.99,480.867,346.673,484.514,342.806,489.32L342.806,489.32z"/>
<path fill="#00ABE6" d="M274.918,459.164c3.135,1.201,6.329,2.28,9.399,3.637c4.953,2.188,9.476,5.077,13.322,8.952
	c7.615,7.674,8.423,16.746,2.154,25.582c-4.726,6.662-11.059,11.559-17.993,15.673c-9.287,5.512-19.448,8.856-29.942,11.017
	c-8.397,1.727-16.91,2.936-25.413,4.071c-10.632,1.42-21.354,1.76-32.059,1.383c-14.22-0.5-28.371-1.718-41.964-6.416
	c-4.48-1.549-8.734-3.544-12.53-6.985c-1.896,2.261-3.789,4.452-5.604,6.707c-1.235,1.538-2.399,3.135-3.521,4.758
	c-1.867,2.706-4.602,3.917-7.623,3.302c-3.996-0.807-7.962-2.015-11.762-3.509c-5.841-2.298-6.906-6.567-4.305-12.457
	c2.117-4.791,5.754-8.474,9.336-12.17c18.357-18.926,38.227-36.188,58.575-52.897c13.45-11.043,27.225-21.681,40.856-32.504
	c0.406-0.324,0.788-0.683,1.089-1.409c-2.613,0.314-5.228,0.604-7.836,0.946c-11.004,1.438-21.939,3.533-33.103,3.433
	c-7.268-0.065-13.426-2.989-19.013-7.331c-1.187-0.922-2.662-2.064-2.046-3.856c0.589-1.715,2.353-1.835,3.903-2.001
	c10.033-1.081,20.061-2.23,30.106-3.182c7.973-0.756,15.961-1.321,23.952-1.861c11.211-0.76,22.424-1.523,33.646-2.087
	c11.059-0.555,22.148-0.973,33.172,0.347c9.832,1.179,19.641,2.655,28.676,7.119c3.779,1.867,7.29,4.155,10.088,7.343
	c6.03,6.877,6.427,14.777,1.181,22.312c-4.135,5.943-10.073,9.596-16.421,12.656c-8.702,4.195-17.955,6.747-27.311,8.962
	c-0.289,0.066-0.577,0.132-0.853,0.233c-0.087,0.033-0.13,0.189-0.156,0.236L274.918,459.164z M161.577,492.05
	c3.594,0.191,7.302,0.227,10.969,0.624c4.313,0.467,8.426,1.69,11.908,4.477c3.637,2.91,3.358,6.422-0.681,8.716
	c-2.816,1.597-5.896,2.174-9.074,2.46c-3.505,0.316-7.032,0.542-10.48,1.174c-2.511,0.461-2.946,2.15-0.926,3.714
	c1.892,1.461,4.114,2.71,6.39,3.409c8.426,2.59,17.117,2.896,25.874,2.666c9.584-0.254,19.05-1.361,28.42-3.316
	c11.52-2.403,22.288-6.614,31.795-13.674c5.193-3.852,9.73-8.332,12.193-14.499c2.341-5.857,0.654-11.311-4.793-14.539
	c-2.434-1.438-5.15-2.55-7.875-3.321c-10.994-3.111-22.256-2.514-33.483-2.042c-3.639,0.151-7.263,0.578-10.896,0.874
	c-2.977,0.241-5.955,0.467-8.932,0.719c-1.38,0.118-1.938-0.506-1.987-1.863c-0.108-3.165,1.288-5.423,4.299-6.502
	c1.453-0.518,2.97-0.961,4.494-1.162c9.527-1.254,19.052-2.55,28.601-3.6c10.118-1.113,20.023-3.09,29.605-6.546
	c7.176-2.589,14.017-5.846,19.81-10.921c1.69-1.481,3.251-3.202,4.533-5.048c4.191-6.01,2.861-11.878-3.444-15.665
	c-4.978-2.988-10.555-4.077-16.203-4.716c-8.586-0.969-17.193-0.88-25.787-0.043c-0.752,0.073-1.609,0.447-2.162,0.957
	c-9.228,8.518-18.432,17.062-27.609,25.64c-14.986,14.007-29.978,28.01-44.902,42.084c-3.373,3.186-6.479,6.657-9.657,9.942V492.05z
	"/>
<path fill="#00ABE6" d="M913,524.898c0.051-2.361,2.188-4.445,4.515-4.396c2.235,0.045,4.426,2.391,4.341,4.646
	c-0.083,2.164-2.177,4.131-4.401,4.139C915.016,529.293,912.952,527.257,913,524.898L913,524.898z M917.417,528.703
	c2.097,0.008,3.852-1.664,3.838-3.657c-0.016-2.103-1.806-4.011-3.781-4.029c-2.159-0.02-3.857,1.774-3.846,4.063
	C913.642,527.226,915.182,528.699,917.417,528.703z"/>
<g display="none">
	<g display="inline">
		<g>
			<path fill="#040607" d="M277.244,601.242c-1.91-15.336-2.714-21.774-3.088-24.766c3.279-0.867,9.165-2.385,12.646-1.56
				c3.48,0.827,8.944,7.406,1.705,13.844c3.241,4.027,6.65,8.468,7.333,9.297c-3.277,0.635-5.033,1.007-5.557,1.111
				c-5.341-6.924-7.444-9.531-8.129-10.244c2.511-1.73,5.035-4.153,4.561-6.668c-0.474-2.515-2.721-4.396-7.007-2.678
				c1.172,9.409,2.005,16.098,2.619,21.006c-2.491,0.311-3.172,0.419-5.081,0.656L277.244,601.242z"/>
			<path fill="#040607" d="M305.394,596.571c-1.124,0-2.158-0.18-3.111-0.534c-2.15-0.803-4.135-2.352-5.047-5.193
				c-0.943-2.936-1.012-5.822,0.24-8.373c1.126-2.296,3.161-3.933,5.725-4.607c2.509-0.662,4.663-0.455,6.404,0.616
				c1.911,1.174,3.22,3.354,3.889,6.479l0.382,1.771l-1.755,0.44c-0.645,0.158-3.896,0.769-10.533,2.131
				c0.421,1.731,1.524,2.8,2.676,3.23c1.904,0.711,4.094,0.142,7.828-1.683l1.645,3.361
				C310.512,595.79,307.755,596.572,305.394,596.571L305.394,596.571z M304.154,581.484c-1.524,0.392-1.967,0.969-2.615,2.294
				c-0.272,0.555-0.327,1.495-0.327,2.06c4.141-0.853,5.945-1.318,7.77-1.732c-0.432-1.113-0.991-1.886-1.679-2.309
				C306.83,581.506,305.8,581.064,304.154,581.484L304.154,581.484z"/>
			<path fill="#040607" d="M320.91,593.757c-0.957,0-1.985-0.059-3.082-0.179l0.399-3.722c4.891,0.521,6.46-0.346,7.179-0.934
				c0.457-0.37,0.692-0.816,0.748-1.403c0.059-0.62-0.263-1.15-0.562-1.495c-0.378-0.438-1.989-0.612-2.853-0.654
				c-1.788-0.091-6.062-0.274-5.852-5.476c0.054-1.278,0.949-2.598,1.97-3.497c2.879-2.532,8.244-2.282,9.816-2.144l-0.325,3.73
				c-3.017-0.267-5.194-0.385-6.311,0.599c-0.315,0.276-0.61,0.853-0.61,1.028c0,0.467-0.529,1.762,2.997,1.938
				c1.896,0.093,3.954,0.542,5.008,1.759c0.976,1.133,1.412,2.604,1.254,4.255c-0.149,1.582-1.314,3.226-2.546,4.228
				c-1.601,1.306-4.028,1.965-7.232,1.965L320.91,593.757z"/>
			<path fill="#040607" d="M387.021,584.174c-0.957-0.051-1.979-0.169-3.066-0.345l0.603-3.694c4.856,0.79,6.47,0.011,7.222-0.536
				c0.473-0.345,0.737-0.777,0.824-1.362c0.094-0.614-0.2-1.162-0.479-1.524c-0.351-0.459-1.953-0.719-2.814-0.811
				c-1.779-0.188-6.037-0.607-5.541-5.79c0.124-1.274,1.092-2.54,2.158-3.381c3.012-2.369,8.357-1.825,9.921-1.6l-0.531,3.704
				c-2.999-0.431-5.165-0.668-6.335,0.252c-0.327,0.258-0.654,0.819-0.664,0.991c-0.024,0.467-0.626,1.731,2.885,2.099
				c1.89,0.203,3.919,0.763,4.903,2.036c0.913,1.183,1.268,2.674,1.018,4.317c-0.236,1.571-1.489,3.146-2.773,4.08
				C392.681,583.831,390.222,584.352,387.021,584.174L387.021,584.174z"/>
			<path fill="#040607" d="M340.691,590.822L340.691,590.822c-4.926,0-7.646-3.564-7.794-9.103c-0.079-2.968,0.896-5.667,2.81-7.629
				c1.585-1.629,3.942-2.526,6.071-2.526c6.002,0.002,8.097,3.474,8.325,8.654c0.267,6.032-2.242,9.508-7.486,10.443
				C342.253,590.723,341.036,590.823,340.691,590.822L340.691,590.822z M341.837,575.305c-1.17,0-2.282,0.479-3.139,1.395
				c-0.889,0.949-1.222,3.056-1.168,5.02c0.064,2.433,0.982,5.242,3.823,5.366l0,0c0.23,0,0.466-0.024,0.714-0.037
				c3.421-0.183,3.71-3.987,3.607-6.312C345.608,579.229,345.065,575.4,341.837,575.305L341.837,575.305L341.837,575.305z"/>
			<path fill="#040607" d="M364.77,572.639l-0.104-4.193c-1.432,0.079-3.986,0.662-6.022,3.436l-0.566-2.052l-3.934,0.142
				l1.124,18.204l4.682-0.514l-0.796-11.438c1.36-3.03,3.981-3.495,5.618-3.586L364.77,572.639z"/>
			<path fill="#040607" d="M381.336,580.923c-3.568,0.843-4.265,0.227-4.632-0.045c-0.126-0.095-0.463-0.738-0.516-1.64
				c-0.104-1.794-0.304-5.071-0.503-8.318l4.343-0.482l-0.077-3.609l-4.48,0.568c-0.201-3.218-0.357-5.758-0.357-5.758l-6.786,9.876
				h2.853c0.047,3.322,0.079,4.182,0.331,8.516c0.126,2.186,1.067,3.629,1.916,4.263c1.046,0.778,2.52,0.938,4.261,0.938
				c1.197,0,2.564-0.186,4.11-0.552L381.336,580.923L381.336,580.923z"/>
		</g>
		<g>
			<path fill="#040607" d="M428.617,579.901C428.615,579.901,428.615,579.901,428.617,579.901c-4.925,0-7.647-3.564-7.796-9.103
				c-0.077-2.966,0.896-5.665,2.81-7.627c1.587-1.631,3.94-2.53,6.071-2.53c6.004,0.002,8.097,3.475,8.328,8.655
				c0.266,6.034-2.245,9.507-7.489,10.443C430.179,579.801,428.962,579.901,428.617,579.901z M429.826,563.497
				c-1.382,0-2.688,0.551-3.7,1.603c-1.046,1.092-1.441,3.518-1.38,5.778c0.077,2.802,1.16,6.034,4.51,6.174
				c0.002,0,0.002,0,0.002,0c0.271,0,0.549-0.025,0.835-0.041c4.039-0.211,4.382-4.592,4.261-7.266
				c-0.076-1.735-0.719-6.142-4.524-6.25c-0.002,0-0.002,0-0.004,0L429.826,563.497z"/>
			<path fill="#040607" d="M452.242,562.527v-3.183c-1.43-0.083-4.133,0.143-6.393,3.127l-0.223-2.281h-2.885v18.087l3.274,0.02
				v-11.886C447.657,562.669,450.607,562.433,452.242,562.527L452.242,562.527z"/>
			<path fill="#040607" d="M414.383,558.588c0.819-0.818,2.406-1.19,4.941-1.158l0.037-2.997c-2.332-0.025-5.236,0.184-7.094,2.036
				c-1.194,1.191-1.792,2.905-1.77,5.092c0.004,0.492,0.016,1.04,0.028,1.571l-3.651,0.388l0.317,2.981l3.411-0.366
				c0.066,2.123,0.155,4.405,0.254,6.786c0.111,2.731,0.221,5.496,0.297,8.046l2.995-0.087c-0.075-2.562-0.188-5.337-0.298-8.082
				c-0.1-2.456-0.19-4.809-0.26-6.98l5.022-0.536l-0.315-2.979l-4.781,0.511c-0.008-0.43-0.02-0.883-0.023-1.28
				c-0.016-1.367,0.273-2.332,0.888-2.942L414.383,558.588z"/>
			<path fill="#040607" d="M548.159,554.908l-6.224,16.924l-4.332-16.924h-3.629l4.729,18.473h2.664l-1.233,3.353
				c-1.099,2.806-3.245,2.529-5.222,1.924c-0.165,0.551-0.605,2.089-0.88,3.189c1.593,0.494,4.5,0.482,6.378-0.384
				c2.253-1.046,3.501-5.449,4.287-7.479l7.093-19.078h-3.631V554.908z"/>
			<path fill="#040607" d="M507.055,574.299c-1.104-0.215-2.085-0.593-2.952-1.126c-1.952-1.201-2.977-3.143-3.323-6.106
				c-0.36-3.064,0.329-5.959,2.05-8.219c1.548-2.035,3.619-3.09,6.268-3.259c2.588-0.167,4.175,0.184,5.678,1.566
				c1.649,1.52,2.513,3.913,2.567,7.108l0.03,1.398c0,0-6.668,0.354-12.737,0.551c0.079,1.782,0.758,3.868,1.807,4.516
				c1.732,1.064,4.906,0.973,8.925-0.103l0.429,2.757C512.554,574.592,509.371,574.754,507.055,574.299L507.055,574.299z
				 M509.139,558.409c-1.853,0.158-2.509,0.805-3.596,2.373c-0.457,0.653-0.758,1.862-0.9,2.59c4.99-0.165,7.187-0.362,9.396-0.482
				c-0.213-1.538-0.664-2.666-1.349-3.366C512.216,559.037,511.143,558.231,509.139,558.409L509.139,558.409z"/>
			<path fill="#040607" d="M598.124,573.794c-1.085-0.295-2.04-0.731-2.867-1.321c-1.869-1.333-2.757-3.338-2.905-6.32
				c-0.149-3.08,0.731-5.921,2.602-8.061c1.682-1.926,3.82-2.836,6.475-2.828c2.596,0.011,4.153,0.466,5.56,1.946
				c1.542,1.631,2.243,4.076,2.078,7.271L609,565.878c0,0-6.678-0.102-12.745-0.311c-0.041,1.781,0.494,3.911,1.497,4.622
				c1.654,1.182,4.829,1.302,8.911,0.504l0.24,2.781C603.591,574.455,600.403,574.403,598.124,573.794L598.124,573.794z
				 M601.277,558.08c-1.861,0.035-2.561,0.634-3.751,2.123c-0.496,0.624-0.883,1.81-1.073,2.522c4.99,0.176,7.196,0.126,9.407,0.154
				c-0.11-1.548-0.482-2.702-1.117-3.448C604.306,558.916,603.29,558.038,601.277,558.08L601.277,558.08z"/>
			<path fill="#040607" d="M558.828,573.519L558.828,573.519c-4.899-0.477-7.263-4.288-6.875-9.814
				c0.211-2.962,1.443-5.553,3.535-7.32c1.736-1.469,4.169-2.135,6.288-1.928c5.975,0.581,7.725,4.24,7.447,9.421
				c-0.318,6.03-3.156,9.242-8.464,9.667C560.394,573.572,559.171,573.554,558.828,573.519L558.828,573.519z M561.623,557.31
				c-1.375-0.132-2.733,0.289-3.842,1.237c-1.145,0.983-1.774,3.361-1.931,5.616c-0.192,2.796,0.569,6.12,3.892,6.583l0,0
				c0.271,0.026,0.551,0.028,0.839,0.041c4.037,0.185,4.803-4.143,4.943-6.817c0.089-1.734-0.12-6.183-3.897-6.657
				C561.623,557.31,561.623,557.31,561.623,557.31z"/>
			<path fill="#040607" d="M531.377,558.155l0.171-3.179c-1.426-0.157-4.135-0.078-6.548,2.781l-0.105-2.292l-2.88-0.151
				l-0.963,18.063l3.27,0.193l0.634-11.867C526.792,558.051,529.75,557.972,531.377,558.155L531.377,558.155z"/>
			<path fill="#040607" d="M583.79,554.726c-1.426-0.157-4.094,0.11-6.506,2.969l-0.146-2.481l-2.879-0.15l-0.963,18.064
				l3.269,0.191l0.633-11.865c1.392-2.104,3.85-4.208,6.205-3.759c2.356,0.453,2.453,2.909,2.306,5.215s-0.851,8.873-1.002,10.276
				c1.604,0,2.606,0.052,3.259,0.052c0.703-6.116,0.902-9.175,1.054-11.532C589.171,559.348,588.991,555.167,583.79,554.726
				L583.79,554.726z"/>
			<path fill="#040607" d="M468.338,573.414c0,0-0.01-4.322-0.021-9.088l8.621-0.441l-0.152-2.993l-8.477,0.436
				c-0.006-2.763-0.01-5.406-0.012-7.183c0.612-0.049,7.802-0.67,11.051-0.886l-0.198-2.991c-3.271,0.216-13.849,1.036-13.849,1.036
				l0.047,25.334c0,0,12.89-0.912,13.989-1.012l-0.27-2.983c-1.085,0.101-8.706,0.622-10.727,0.771L468.338,573.414z"/>
			<path fill="#040607" d="M496.163,556.794l-5.681,14.218l-4.347-13.466h-3.859l6.266,17.699h3.56l7.923-18.45L496.163,556.794z"/>
		</g>
	</g>
	<g display="inline">
		<g>
			<path fill="#040607" d="M723.287,564.646l-7.406,16.441l-3.127-17.187l-3.619-0.257l3.413,18.76l2.655,0.187l-1.467,3.259
				c-1.294,2.722-3.413,2.294-5.347,1.551c-0.205,0.537-0.75,2.044-1.101,3.118c1.554,0.607,4.454,0.804,6.388,0.067
				c2.324-0.886,3.877-5.189,4.806-7.156l8.424-18.529l-3.621-0.255L723.287,564.646z"/>
			<path fill="#040607" d="M696.21,580.25c-1.802,0-3.879-0.358-6.256-1.075l-1.168-0.354l0.11-1.22
				c0.188-2.077,2.02-19.605,2.498-23.988l2.979,0.324c-0.187,1.699-0.575,5.37-0.991,9.351c2.773-1.924,5.143-1.806,6.495-1.467
				c2.631,0.659,4.724,2.941,5.329,5.811c0.971,4.592-0.819,9.409-4.257,11.457C699.65,579.863,698.079,580.249,696.21,580.25
				L696.21,580.25z M692.001,576.636c3.342,0.863,5.839,0.823,7.418-0.122c1.983-1.18,3.657-4.478,2.857-8.263
				c-0.372-1.755-1.6-3.139-3.13-3.523c-1.899-0.477-4.107,0.59-6.23,3.014C692.534,571.396,692.187,574.793,692.001,576.636
				L692.001,576.636z"/>
		</g>
		<g>
			<path fill="#040607" d="M767.021,571.67c-1.869-2.003-6.873-2.611-10.992-1.575c0.126,1.05,0.327,1.948,0.611,3.484
				c0.75-0.234,2.737-0.638,5.11-0.146c2.375,0.494,2.958,1.989,2.757,3.793c-0.601-0.295-10.971-2.701-11.354,4.781
				c-0.402,7.863,11.254,6.942,14.295,6.638c0.1-0.824,0.805-6.732,1.213-9.896C769.062,575.585,768.891,573.671,767.021,571.67
				L767.021,571.67z M763.254,585.096c-0.924,0.126-6.02,0.158-5.597-2.932c0.421-3.094,3.625-2.905,6.185-2.015
				C763.812,580.688,763.572,582.851,763.254,585.096L763.254,585.096z"/>
			<path fill="#040607" d="M825.003,581.404c-1.808-2.061-6.788-2.818-10.938-1.91c0.095,1.054,0.268,1.959,0.506,3.503
				c0.758-0.211,2.751-0.555,5.109,0.012c2.359,0.563,2.897,2.074,2.644,3.875c-0.596-0.311-10.884-3.035-11.5,4.43
				c-0.641,7.849,11.038,7.285,14.088,7.072c0.126-0.825,1.012-6.707,1.516-9.855C826.927,585.381,826.811,583.465,825.003,581.404
				L825.003,581.404z M820.825,594.708c-0.926,0.102-6.022-0.022-5.504-3.102c0.516-3.078,3.712-2.792,6.244-1.822
				C821.52,590.322,821.211,592.476,820.825,594.708L820.825,594.708z"/>
			<path fill="#040607" d="M737.331,585.342c-1.113-0.354-2.276-0.798-3.505-1.337l1.621-4.312c5.474,2.405,7.971,1.911,9.017,1.499
				c0.666-0.265,1.105-0.695,1.388-1.354c0.295-0.695,0.6-1.815-0.051-2.723c-0.937-1.303-3.405-2.548-4.355-2.997
				c-2.653-1.258-6.29-3.785-4.131-9.734c0.531-1.461,2.054-2.66,3.565-3.324c4.265-1.875,10.254,0.602,12.024,1.344l-1.547,3.85
				c-3.398-1.414-5.942-2.223-7.599-1.491c-0.465,0.205-1.02,0.767-1.081,0.969c-0.175,0.543-1.721,2.683,2.125,4.584
				c2.59,1.282,5.346,2.826,6.414,5.668c0.67,1.785,0.51,3.625-0.282,5.481c-0.754,1.778-2.565,3.344-4.357,4.053
				C744.243,586.441,741.043,586.521,737.331,585.342L737.331,585.342z"/>
			<path fill="#040607" d="M841.055,602.596c-0.901-0.32-1.849-0.719-2.842-1.198l1.623-3.373c4.436,2.131,6.205,1.841,7.077,1.531
				c0.555-0.198,0.929-0.54,1.18-1.074c0.261-0.562,0.134-1.171-0.03-1.596c-0.211-0.54-1.67-1.245-2.469-1.575
				c-1.656-0.685-5.622-2.289-3.677-7.122c0.477-1.186,1.766-2.128,3.027-2.632c3.56-1.42,8.53,0.616,9.966,1.274l-1.557,3.403
				c-2.753-1.261-4.766-2.105-6.147-1.555c-0.388,0.156-0.861,0.604-0.918,0.767c-0.156,0.442-1.089,1.482,2.172,2.832
				c1.753,0.725,3.543,1.839,4.124,3.34c0.545,1.392,0.459,2.924-0.244,4.429c-0.673,1.441-2.322,2.595-3.816,3.127
				C846.58,603.865,844.074,603.67,841.055,602.596L841.055,602.596z"/>
			<path d="M784,572.934c-0.471-0.102-0.973-0.151-1.479-0.151c-1.214,0-2.948,0.301-4.761,1.615l0.045-1.628l-3.895-0.617
				l-2.666,18.16l4.34,0.711l1.705-11.605c1.13-1.292,3.044-2.745,4.89-2.745c0.312,0,0.614,0.043,0.9,0.126
				c1.725,0.508,1.825,2.194,1.447,4.571c-0.137,0.856-0.362,2.416-0.596,4.072c-0.355,2.484-0.756,5.297-0.916,6.079l-0.126,0.606
				l0.616,0.065c0.978,0.104,1.728,0.203,2.309,0.277c0.369,0.049,0.673,0.089,0.924,0.116l0.502,0.053l0.107-0.495
				c0.859-4.031,1.168-6.937,1.396-9.056c0.1-0.908,0.181-1.676,0.284-2.337C789.727,576.325,788.03,573.694,784,572.934
				L784,572.934z"/>
			<path fill="#040607" d="M836.474,601.517c-1.813-0.061-4.855-0.382-6.314-2.211c-1.6-2.003-1.195-4.85-0.524-8.317l0.335-1.745
				c0.754-3.915,1.786-9.273,2.983-14.712l4.5,0.723c-1.188,5.389-2.361,10.646-3.153,14.759l-0.335,1.749
				c-0.299,1.547-0.833,3.988-0.185,4.802c0.207,0.258,0.876,0.961,3.048,1.031L836.474,601.517L836.474,601.517z"/>
			<path fill="#040607" d="M802.286,595.165c-5.331,0-9.314-2.554-10.453-6.617c-1.979-7.056,2.946-10.707,4.417-11.597
				c2.162-1.313,6.225-1.459,8.979-0.248c0.437-2.814,0.86-5.434,1.087-7.141l4.354,0.505c-0.748,5.609-4.043,24.686-4.043,24.686
				l-1.703,0.232C804.011,595.107,803.131,595.166,802.286,595.165L802.286,595.165z M801.457,579.667
				c-1.146,0-2.219,0.341-2.828,0.725c-1.339,0.852-3.123,3.084-2.314,7.032c0.693,3.385,4.031,3.509,6.327,3.397
				c0.344-2.102,0.957-6.478,1.553-10.396C803.471,579.755,802.666,579.667,801.457,579.667L801.457,579.667z"/>
		</g>
	</g>
</g>
<path fill="#00ABE6" d="M915.669,522.325h1.959c0.282,0,0.534,0.047,0.754,0.138c0.217,0.091,0.398,0.221,0.542,0.386
	c0.114,0.128,0.201,0.284,0.26,0.459c0.062,0.176,0.092,0.368,0.092,0.577v0.015c0,0.221-0.03,0.417-0.092,0.591
	c-0.059,0.171-0.144,0.32-0.256,0.451c-0.111,0.126-0.242,0.231-0.394,0.314c-0.15,0.083-0.317,0.141-0.494,0.175l1.398,2.15h-0.633
	l-1.318-2.042h-1.302v2.042h-0.517V522.325L915.669,522.325z M917.587,525.005c0.169,0,0.325-0.026,0.467-0.073
	c0.143-0.051,0.269-0.124,0.372-0.213c0.106-0.095,0.188-0.207,0.244-0.339c0.059-0.132,0.089-0.284,0.089-0.455v-0.016
	c0-0.325-0.102-0.579-0.305-0.763c-0.207-0.183-0.492-0.273-0.863-0.273h-1.406v2.133L917.587,525.005L917.587,525.005z"/>
</svg>
